# xmcd CD database file
#
# Track frame offsets:
#	150
#	28246
#	72962
#	100267
#	129591
#	166152
#	205814
#	235355
#	254911
#	291712
#	313465
#
# Disc length: 4435 seconds
#
# Revision: 0
# Processed by: cddbd v1.5.2PL0 Copyright (c) Steve Scherf et al.
# Submitted via: CDex 1.50
#
DISCID=b411510b
DTITLE=Various Artist - MTV Ethno Hits
DYEAR=2001
DGENRE=New Age
TTITLE0=Natasha Atlas - Duden (Talvin Singh Remix)
TTITLE1=Chicane and Maire Brennan of Clannad - Saltwater (Original Mix)
TTITLE2=Deep Forest - Huahine Reggae
TTITLE3=Enigma - Push The Limits
TTITLE4=Nusrat Fateh Ali Khan and Michael Brook - My Heart, My Life (Talvin Singh Remix)
TTITLE5=Transglobal Underground - Sky Giant
TTITLE6=Leftfield - Rino's Prayer
TTITLE7=Peter Gabriel and Nusrat Fateh Ali Khan - Taboo
TTITLE8=Delerium - Temptation
TTITLE9=Sting and Cheb Mami - Desert Rose
TTITLE10=The Chemical Brothers - One Too Many Morning
EXTD=YEAR: 2001
EXTT0=
EXTT1=
EXTT2=
EXTT3=
EXTT4=
EXTT5=
EXTT6=
EXTT7=
EXTT8=
EXTT9=
EXTT10=
PLAYORDER=
